<?xml version="1.0" encoding="UTF-8"?>
<svg version="1.1" xmlns="http://www.w3.org/2000/svg" width="32" height="32">
<path d="M0 0 C3.5625 0.1875 3.5625 0.1875 5.5625 2.1875 C5.6875 4.8125 5.6875 4.8125 5.5625 7.1875 C9.07026784 8.79105101 11.70604879 9.40786864 15.5625 9.1875 C15.68625 9.826875 15.81 10.46625 15.9375 11.125 C16.14375 11.805625 16.35 12.48625 16.5625 13.1875 C17.2225 13.5175 17.8825 13.8475 18.5625 14.1875 C17.5725 14.1875 16.5825 14.1875 15.5625 14.1875 C15.5625 14.8475 15.5625 15.5075 15.5625 16.1875 C14.2425 16.1875 12.9225 16.1875 11.5625 16.1875 C11.27375 16.826875 10.985 17.46625 10.6875 18.125 C9.5625 20.1875 9.5625 20.1875 7.5625 21.1875 C8.5525 24.8175 9.5425 28.4475 10.5625 32.1875 C8.2525 32.1875 5.9425 32.1875 3.5625 32.1875 C2.5725 29.5475 1.5825 26.9075 0.5625 24.1875 C-0.90797336 28.09813224 -0.90797336 28.09813224 -1.4375 32.1875 C-3.0875 32.1875 -4.7375 32.1875 -6.4375 32.1875 C-6.6174928 26.96770872 -6.40844808 23.11487019 -4.4375 18.1875 C-6.0875 17.8575 -7.7375 17.5275 -9.4375 17.1875 C-8.82759109 13.62969804 -7.8591319 10.5046411 -6.4375 7.1875 C-6.1075 7.8475 -5.7775 8.5075 -5.4375 9.1875 C-4.4475 9.1875 -3.4575 9.1875 -2.4375 9.1875 C-2.4375 8.5275 -2.4375 7.8675 -2.4375 7.1875 C-3.4275 6.8575 -4.4175 6.5275 -5.4375 6.1875 C-4.36970339 0.23834746 -4.36970339 0.23834746 0 0 Z " fill="#1D201C" transform="translate(11.4375,-0.1875)"/>
<path d="M0 0 C3.5625 0.1875 3.5625 0.1875 5.5625 2.1875 C5.83241906 4.87589385 5.64987357 7.47891936 5.5625 10.1875 C2.34798731 11.79475635 -0.87362536 11.24498185 -4.4375 11.1875 C-4.4375 12.1775 -4.4375 13.1675 -4.4375 14.1875 C-3.4475 14.8475 -2.4575 15.5075 -1.4375 16.1875 C-3.4175 16.5175 -5.3975 16.8475 -7.4375 17.1875 C-8.59587626 13.13318308 -8.27441257 10.96937881 -6.4375 7.1875 C-6.1075 7.8475 -5.7775 8.5075 -5.4375 9.1875 C-4.4475 9.1875 -3.4575 9.1875 -2.4375 9.1875 C-2.4375 8.5275 -2.4375 7.8675 -2.4375 7.1875 C-3.4275 6.8575 -4.4175 6.5275 -5.4375 6.1875 C-4.36970339 0.23834746 -4.36970339 0.23834746 0 0 Z " fill="#31382F" transform="translate(11.4375,-0.1875)"/>
<path d="M0 0 C1.134375 0.020625 2.26875 0.04125 3.4375 0.0625 C4.0975 1.3825 4.7575 2.7025 5.4375 4.0625 C3.1275 4.0625 0.8175 4.0625 -1.5625 4.0625 C-1.5625 4.7225 -1.5625 5.3825 -1.5625 6.0625 C-2.8825 6.0625 -4.2025 6.0625 -5.5625 6.0625 C-4.48849278 0.07874549 -4.48849278 0.07874549 0 0 Z " fill="#371717" transform="translate(11.5625,-0.0625)"/>
<path d="M0 0 C3.63 0 7.26 0 11 0 C10.01 0.33 9.02 0.66 8 1 C8 1.66 8 2.32 8 3 C6.68 3 5.36 3 4 3 C3.67 3.66 3.34 4.32 3 5 C2.01 4.34 1.02 3.68 0 3 C0 2.01 0 1.02 0 0 Z " fill="#1F1C17" transform="translate(19,13)"/>
<path d="M0 0 C0.33 0 0.66 0 1 0 C0.67 2.64 0.34 5.28 0 8 C0.99 8 1.98 8 3 8 C3.33 7.34 3.66 6.68 4 6 C4 7.98 4 9.96 4 12 C2.35 12 0.7 12 -1 12 C-1.14285714 3.42857143 -1.14285714 3.42857143 0 0 Z " fill="#130D0D" transform="translate(6,20)"/>
<path d="M0 0 C3 3.75 3 3.75 3 6 C0.69 6 -1.62 6 -4 6 C-4.33 4.35 -4.66 2.7 -5 1 C-2.525 1.495 -2.525 1.495 0 2 C0 1.34 0 0.68 0 0 Z " fill="#1B0A0A" transform="translate(19,26)"/>
<path d="M0 0 C5.75 0.875 5.75 0.875 8 2 C8 2.66 8 3.32 8 4 C6.35 3.67 4.7 3.34 3 3 C3 2.34 3 1.68 3 1 C2.34 1 1.68 1 1 1 C1 1.99 1 2.98 1 4 C-1.31 4 -3.62 4 -6 4 C-6 3.67 -6 3.34 -6 3 C-5.195625 2.87625 -4.39125 2.7525 -3.5625 2.625 C-2.716875 2.41875 -1.87125 2.2125 -1 2 C-0.67 1.34 -0.34 0.68 0 0 Z " fill="#3D3D2D" transform="translate(14,15)"/>
<path d="M0 0 C1.32 0 2.64 0 4 0 C4 1.98 4 3.96 4 6 C3.01 6 2.02 6 1 6 C1 5.34 1 4.68 1 4 C0.34 4 -0.32 4 -1 4 C-0.67 2.68 -0.34 1.36 0 0 Z " fill="#6D8BA6" transform="translate(13,4)"/>
<path d="M0 0 C0.99 0.33 1.98 0.66 3 1 C2.67 3.31 2.34 5.62 2 8 C1.01 8 0.02 8 -1 8 C-0.67 5.36 -0.34 2.72 0 0 Z " fill="#3A4D41" transform="translate(7,20)"/>
<path d="M0 0 C0.66 0 1.32 0 2 0 C2 0.66 2 1.32 2 2 C3.32 2.66 4.64 3.32 6 4 C4.68 4.99 3.36 5.98 2 7 C1.34 4.69 0.68 2.38 0 0 Z " fill="#1C1C1C" transform="translate(15,16)"/>
<path d="" fill="#0F0F0F" transform="translate(0,0)"/>
<path d="" fill="#0F0F0F" transform="translate(0,0)"/>
<path d="" fill="#0F0F0F" transform="translate(0,0)"/>
<path d="" fill="#0F0F0F" transform="translate(0,0)"/>
<path d="" fill="#0F0F0F" transform="translate(0,0)"/>
<path d="" fill="#0F0F0F" transform="translate(0,0)"/>
</svg>
